<svg xmlns="http://www.w3.org/2000/svg" viewBox="0 0 300.41 74.96"><defs><style>.cls-1{fill:#3a3a3a;}.cls-2{fill:#c7000a;}</style></defs><title>Logo_Bwhite</title><g id="レイヤー_1" data-name="レイヤー 1"><path class="cls-1" d="M73.74,25.77H64.6V18.55H90.14v7.22H81V57H73.74Z"/><path class="cls-1" d="M99.59,49.7h14.64V57h-22V27.7h22V45.58H99.59Zm0-14.67V40h7.31V35Z"/><path class="cls-1" d="M131,45.77h7.31V57h-22V27.7h22V39H131V35h-7.33V49.7H131Z"/><path class="cls-1" d="M140.44,18.55h7.31V27.7h14.67V57h-7.31V35h-7.33V57h-7.33Z"/><path class="cls-1" d="M171.86,57h-7.33V27.7h22V57H179.2V35h-7.33Z"/><path class="cls-1" d="M210.59,27.7V57h-22V27.7ZM196,35V49.7h7.33V35Z"/><path class="cls-1" d="M221.86,25.77h-9.15V18.55h25.54v7.22h-9.15V57h-7.25Z"/><path class="cls-1" d="M258.69,18.55h7.22V57H240.37V18.55h7.25V49.78h11.07Z"/><path class="cls-1" d="M277.18,25.77H268V18.55h25.54v7.22h-9.15V57h-7.25Z"/><polygon class="cls-1" points="45.21 26.6 45.21 48.36 52.35 44.23 52.38 38.99 56.92 41.6 64.05 37.48 45.21 26.6"/><polygon class="cls-1" points="17.34 10.51 17.34 10.51 7.11 4.6 7.11 70.36 14.28 66.21 14.28 17 17.34 18.75 17.34 64.44 24.52 60.3 24.52 22.93 29.48 25.81 33.07 19.59 17.34 10.51"/><polygon class="cls-2" points="45.84 26.97 38.68 22.83 38.67 43.92 35.64 45.68 35.64 21.08 28.47 16.94 28.46 58.03 45.85 47.99 45.84 26.97"/></g></svg>